%TF.GenerationSoftware,KiCad,Pcbnew,7.0.1*%
%TF.CreationDate,2023-11-07T15:52:04+07:00*%
%TF.ProjectId,Hot-plate-controller,486f742d-706c-4617-9465-2d636f6e7472,rev?*%
%TF.SameCoordinates,Original*%
%TF.FileFunction,Soldermask,Top*%
%TF.FilePolarity,Negative*%
%FSLAX46Y46*%
G04 Gerber Fmt 4.6, Leading zero omitted, Abs format (unit mm)*
G04 Created by KiCad (PCBNEW 7.0.1) date 2023-11-07 15:52:04*
%MOMM*%
%LPD*%
G01*
G04 APERTURE LIST*
G04 Aperture macros list*
%AMRoundRect*
0 Rectangle with rounded corners*
0 $1 Rounding radius*
0 $2 $3 $4 $5 $6 $7 $8 $9 X,Y pos of 4 corners*
0 Add a 4 corners polygon primitive as box body*
4,1,4,$2,$3,$4,$5,$6,$7,$8,$9,$2,$3,0*
0 Add four circle primitives for the rounded corners*
1,1,$1+$1,$2,$3*
1,1,$1+$1,$4,$5*
1,1,$1+$1,$6,$7*
1,1,$1+$1,$8,$9*
0 Add four rect primitives between the rounded corners*
20,1,$1+$1,$2,$3,$4,$5,0*
20,1,$1+$1,$4,$5,$6,$7,0*
20,1,$1+$1,$6,$7,$8,$9,0*
20,1,$1+$1,$8,$9,$2,$3,0*%
G04 Aperture macros list end*
%ADD10RoundRect,0.250000X-0.650000X1.000000X-0.650000X-1.000000X0.650000X-1.000000X0.650000X1.000000X0*%
%ADD11R,1.500000X2.000000*%
%ADD12C,3.000000*%
%ADD13RoundRect,0.200000X0.275000X-0.200000X0.275000X0.200000X-0.275000X0.200000X-0.275000X-0.200000X0*%
%ADD14R,1.700000X1.700000*%
%ADD15O,1.700000X1.700000*%
%ADD16C,3.200000*%
%ADD17RoundRect,0.250000X-0.250000X-0.475000X0.250000X-0.475000X0.250000X0.475000X-0.250000X0.475000X0*%
%ADD18RoundRect,0.250000X-0.750000X0.600000X-0.750000X-0.600000X0.750000X-0.600000X0.750000X0.600000X0*%
%ADD19O,2.000000X1.700000*%
%ADD20RoundRect,0.200000X0.200000X0.275000X-0.200000X0.275000X-0.200000X-0.275000X0.200000X-0.275000X0*%
%ADD21RoundRect,0.200000X-0.200000X-0.275000X0.200000X-0.275000X0.200000X0.275000X-0.200000X0.275000X0*%
%ADD22R,1.905000X2.000000*%
%ADD23O,1.905000X2.000000*%
%ADD24RoundRect,0.150000X-0.587500X-0.150000X0.587500X-0.150000X0.587500X0.150000X-0.587500X0.150000X0*%
%ADD25R,1.780000X2.000000*%
%ADD26RoundRect,0.250000X-0.850000X-0.350000X0.850000X-0.350000X0.850000X0.350000X-0.850000X0.350000X0*%
%ADD27RoundRect,0.249997X-2.950003X-2.650003X2.950003X-2.650003X2.950003X2.650003X-2.950003X2.650003X0*%
%ADD28R,3.000000X3.000000*%
%ADD29RoundRect,0.225000X0.250000X-0.225000X0.250000X0.225000X-0.250000X0.225000X-0.250000X-0.225000X0*%
%ADD30RoundRect,0.250000X0.600000X0.725000X-0.600000X0.725000X-0.600000X-0.725000X0.600000X-0.725000X0*%
%ADD31O,1.700000X1.950000*%
%ADD32RoundRect,0.200000X-0.275000X0.200000X-0.275000X-0.200000X0.275000X-0.200000X0.275000X0.200000X0*%
%ADD33R,1.600000X1.600000*%
%ADD34C,1.600000*%
%ADD35RoundRect,0.225000X-0.225000X-0.250000X0.225000X-0.250000X0.225000X0.250000X-0.225000X0.250000X0*%
%ADD36RoundRect,0.225000X0.225000X0.250000X-0.225000X0.250000X-0.225000X-0.250000X0.225000X-0.250000X0*%
%ADD37R,2.000000X1.500000*%
%ADD38R,2.000000X3.800000*%
%ADD39RoundRect,0.225000X-0.250000X0.225000X-0.250000X-0.225000X0.250000X-0.225000X0.250000X0.225000X0*%
%ADD40RoundRect,0.150000X0.825000X0.150000X-0.825000X0.150000X-0.825000X-0.150000X0.825000X-0.150000X0*%
%ADD41R,2.000000X2.000000*%
%ADD42C,2.000000*%
%ADD43RoundRect,0.243750X0.456250X-0.243750X0.456250X0.243750X-0.456250X0.243750X-0.456250X-0.243750X0*%
%ADD44C,2.400000*%
%ADD45O,2.400000X2.400000*%
%ADD46RoundRect,0.243750X0.243750X0.456250X-0.243750X0.456250X-0.243750X-0.456250X0.243750X-0.456250X0*%
%ADD47RoundRect,0.100000X0.637500X0.100000X-0.637500X0.100000X-0.637500X-0.100000X0.637500X-0.100000X0*%
G04 APERTURE END LIST*
D10*
%TO.C,D4*%
X134162800Y-105977900D03*
X134162800Y-109977900D03*
%TD*%
D11*
%TO.C,D2*%
X94823600Y-83441400D03*
X99923600Y-83441400D03*
X99923600Y-74701400D03*
X94823600Y-74701400D03*
%TD*%
D12*
%TO.C,J4*%
X128625600Y-51181000D03*
X128625600Y-46101000D03*
%TD*%
%TO.C,J3*%
X85750400Y-45872400D03*
X85750400Y-40792400D03*
%TD*%
%TO.C,J2*%
X74828400Y-45872400D03*
X74828400Y-40792400D03*
%TD*%
%TO.C,J1*%
X117348000Y-51181000D03*
X117348000Y-46101000D03*
%TD*%
D13*
%TO.C,R2*%
X124790200Y-101002600D03*
X124790200Y-99352600D03*
%TD*%
D14*
%TO.C,J6*%
X61417200Y-140436600D03*
D15*
X63957200Y-140436600D03*
X66497200Y-140436600D03*
X69037200Y-140436600D03*
X71577200Y-140436600D03*
X74117200Y-140436600D03*
X76657200Y-140436600D03*
X79197200Y-140436600D03*
X81737200Y-140436600D03*
X84277200Y-140436600D03*
X86817200Y-140436600D03*
X89357200Y-140436600D03*
X91897200Y-140436600D03*
X94437200Y-140436600D03*
X96977200Y-140436600D03*
X99517200Y-140436600D03*
X102057200Y-140436600D03*
X104597200Y-140436600D03*
X107137200Y-140436600D03*
X109677200Y-140436600D03*
%TD*%
D16*
%TO.C,H4*%
X140462000Y-149174200D03*
%TD*%
D13*
%TO.C,R17*%
X127457200Y-129120400D03*
X127457200Y-127470400D03*
%TD*%
D17*
%TO.C,C11*%
X79796200Y-106984800D03*
X81696200Y-106984800D03*
%TD*%
D18*
%TO.C,J16*%
X140961600Y-106705400D03*
D19*
X140961600Y-109205400D03*
%TD*%
D13*
%TO.C,R3*%
X97409000Y-100443800D03*
X97409000Y-98793800D03*
%TD*%
D20*
%TO.C,R8*%
X134352800Y-119382800D03*
X132702800Y-119382800D03*
%TD*%
D21*
%TO.C,R26*%
X118512400Y-105684000D03*
X120162400Y-105684000D03*
%TD*%
D13*
%TO.C,R15*%
X129059700Y-138467600D03*
X129059700Y-136817600D03*
%TD*%
D22*
%TO.C,Q1*%
X124917200Y-75041800D03*
D23*
X127457200Y-75041800D03*
X129997200Y-75041800D03*
%TD*%
D13*
%TO.C,R18*%
X128955800Y-129120400D03*
X128955800Y-127470400D03*
%TD*%
D24*
%TO.C,Q2*%
X89844400Y-117871200D03*
X89844400Y-119771200D03*
X91719400Y-118821200D03*
%TD*%
D13*
%TO.C,R13*%
X88114900Y-119646200D03*
X88114900Y-117996200D03*
%TD*%
D25*
%TO.C,U1*%
X99949000Y-87142400D03*
X97409000Y-87142400D03*
X94869000Y-87142400D03*
X94869000Y-96672400D03*
X97409000Y-96672400D03*
X99949000Y-96672400D03*
%TD*%
D26*
%TO.C,Q5*%
X122528800Y-105670000D03*
D27*
X128828800Y-107950000D03*
D26*
X122528800Y-110230000D03*
%TD*%
D16*
%TO.C,H3*%
X63347600Y-149174200D03*
%TD*%
D28*
%TO.C,J5*%
X139928600Y-116055400D03*
D12*
X139928600Y-121135400D03*
%TD*%
D13*
%TO.C,R10*%
X124866400Y-124627400D03*
X124866400Y-122977400D03*
%TD*%
D29*
%TO.C,C2*%
X72212200Y-102235000D03*
X72212200Y-100685000D03*
%TD*%
D20*
%TO.C,R22*%
X80530200Y-134975600D03*
X78880200Y-134975600D03*
%TD*%
D29*
%TO.C,C5*%
X130124200Y-116163500D03*
X130124200Y-114613500D03*
%TD*%
D21*
%TO.C,R24*%
X72860400Y-129286000D03*
X74510400Y-129286000D03*
%TD*%
D13*
%TO.C,R11*%
X123342400Y-124627400D03*
X123342400Y-122977400D03*
%TD*%
D30*
%TO.C,J15*%
X134064400Y-149699200D03*
D31*
X131564400Y-149699200D03*
X129064400Y-149699200D03*
X126564400Y-149699200D03*
%TD*%
D32*
%TO.C,R19*%
X134637000Y-128263200D03*
X134637000Y-129913200D03*
%TD*%
D18*
%TO.C,J12*%
X140961600Y-137230800D03*
D19*
X140961600Y-139730800D03*
%TD*%
D30*
%TO.C,J9*%
X120460036Y-149699200D03*
D31*
X117960036Y-149699200D03*
X115460036Y-149699200D03*
X112960036Y-149699200D03*
X110460036Y-149699200D03*
%TD*%
D33*
%TO.C,C3*%
X65575795Y-114427000D03*
D34*
X63075795Y-114427000D03*
%TD*%
D35*
%TO.C,C13*%
X79971200Y-108737400D03*
X81521200Y-108737400D03*
%TD*%
D36*
%TO.C,C9*%
X122009200Y-114607600D03*
X120459200Y-114607600D03*
%TD*%
D28*
%TO.C,PS2*%
X78218800Y-55560000D03*
D12*
X67468800Y-55560000D03*
X67468800Y-94060000D03*
X75468800Y-94060000D03*
%TD*%
D16*
%TO.C,H2*%
X63347600Y-41097200D03*
%TD*%
D24*
%TO.C,Q4*%
X130939300Y-127345400D03*
X130939300Y-129245400D03*
X132814300Y-128295400D03*
%TD*%
D37*
%TO.C,U5*%
X77444600Y-111977200D03*
X77444600Y-109677200D03*
D38*
X71144600Y-109677200D03*
D37*
X77444600Y-107377200D03*
%TD*%
D39*
%TO.C,C7*%
X130124200Y-121027300D03*
X130124200Y-122577300D03*
%TD*%
D20*
%TO.C,R25*%
X81571200Y-114681000D03*
X79921200Y-114681000D03*
%TD*%
D40*
%TO.C,U4*%
X76146200Y-134746600D03*
X76146200Y-133476600D03*
X76146200Y-132206600D03*
X76146200Y-130936600D03*
X71196200Y-130936600D03*
X71196200Y-132206600D03*
X71196200Y-133476600D03*
X71196200Y-134746600D03*
%TD*%
D18*
%TO.C,J13*%
X141004000Y-127838200D03*
D19*
X141004000Y-130338200D03*
%TD*%
D20*
%TO.C,R20*%
X80530200Y-132003800D03*
X78880200Y-132003800D03*
%TD*%
D41*
%TO.C,BZ1*%
X91694000Y-105089800D03*
D42*
X91694000Y-112689800D03*
%TD*%
D24*
%TO.C,Q3*%
X130964700Y-136692600D03*
X130964700Y-138592600D03*
X132839700Y-137642600D03*
%TD*%
D43*
%TO.C,D1*%
X128143000Y-101095100D03*
X128143000Y-99220100D03*
%TD*%
D44*
%TO.C,R6*%
X94005400Y-70358000D03*
D45*
X94005400Y-50038000D03*
%TD*%
D25*
%TO.C,U2*%
X124780000Y-96672400D03*
X127320000Y-96672400D03*
X129860000Y-96672400D03*
X129860000Y-87142400D03*
X127320000Y-87142400D03*
X124780000Y-87142400D03*
%TD*%
D44*
%TO.C,R5*%
X100660200Y-70358000D03*
D45*
X100660200Y-50038000D03*
%TD*%
D21*
%TO.C,R23*%
X72860400Y-127812800D03*
X74510400Y-127812800D03*
%TD*%
D20*
%TO.C,R7*%
X134352800Y-117833400D03*
X132702800Y-117833400D03*
%TD*%
D35*
%TO.C,C14*%
X79971200Y-110617000D03*
X81521200Y-110617000D03*
%TD*%
D17*
%TO.C,C12*%
X79796200Y-112420400D03*
X81696200Y-112420400D03*
%TD*%
D13*
%TO.C,R12*%
X86641700Y-119646200D03*
X86641700Y-117996200D03*
%TD*%
D32*
%TO.C,R16*%
X134645400Y-137655800D03*
X134645400Y-139305800D03*
%TD*%
D20*
%TO.C,R21*%
X80530200Y-133477000D03*
X78880200Y-133477000D03*
%TD*%
D13*
%TO.C,R9*%
X126390400Y-124627400D03*
X126390400Y-122977400D03*
%TD*%
D36*
%TO.C,C10*%
X68872400Y-134721600D03*
X67322400Y-134721600D03*
%TD*%
D44*
%TO.C,R4*%
X117449600Y-81722000D03*
D45*
X137769600Y-81722000D03*
%TD*%
D30*
%TO.C,J14*%
X90751312Y-149699200D03*
D31*
X88251312Y-149699200D03*
X85751312Y-149699200D03*
X83251312Y-149699200D03*
%TD*%
D46*
%TO.C,D3*%
X81683700Y-116814600D03*
X79808700Y-116814600D03*
%TD*%
D14*
%TO.C,J8*%
X111962800Y-128861600D03*
D15*
X111962800Y-131401600D03*
X111962800Y-133941600D03*
X111962800Y-136481600D03*
%TD*%
D30*
%TO.C,J10*%
X104355674Y-149699200D03*
D31*
X101855674Y-149699200D03*
X99355674Y-149699200D03*
X96855674Y-149699200D03*
%TD*%
D30*
%TO.C,J11*%
X77146950Y-149699200D03*
D31*
X74646950Y-149699200D03*
X72146950Y-149699200D03*
X69646950Y-149699200D03*
%TD*%
D21*
%TO.C,R27*%
X118512400Y-104185400D03*
X120162400Y-104185400D03*
%TD*%
D47*
%TO.C,U3*%
X127728900Y-120215200D03*
X127728900Y-119565200D03*
X127728900Y-118915200D03*
X127728900Y-118265200D03*
X127728900Y-117615200D03*
X127728900Y-116965200D03*
X127728900Y-116315200D03*
X122003900Y-116315200D03*
X122003900Y-116965200D03*
X122003900Y-117615200D03*
X122003900Y-118265200D03*
X122003900Y-118915200D03*
X122003900Y-119565200D03*
X122003900Y-120215200D03*
%TD*%
D29*
%TO.C,C1*%
X70612000Y-102235000D03*
X70612000Y-100685000D03*
%TD*%
D35*
%TO.C,C8*%
X126885400Y-114607600D03*
X128435400Y-114607600D03*
%TD*%
D16*
%TO.C,H1*%
X140462000Y-41097200D03*
%TD*%
D14*
%TO.C,J7*%
X61417200Y-125196600D03*
D15*
X63957200Y-125196600D03*
X66497200Y-125196600D03*
X69037200Y-125196600D03*
X71577200Y-125196600D03*
X74117200Y-125196600D03*
X76657200Y-125196600D03*
X79197200Y-125196600D03*
X81737200Y-125196600D03*
X84277200Y-125196600D03*
X86817200Y-125196600D03*
X89357200Y-125196600D03*
X91897200Y-125196600D03*
X94437200Y-125196600D03*
X96977200Y-125196600D03*
X99517200Y-125196600D03*
X102057200Y-125196600D03*
X104597200Y-125196600D03*
X107137200Y-125196600D03*
X109677200Y-125196600D03*
%TD*%
D33*
%TO.C,C4*%
X65575795Y-105054400D03*
D34*
X63075795Y-105054400D03*
%TD*%
D13*
%TO.C,R14*%
X127561100Y-138467600D03*
X127561100Y-136817600D03*
%TD*%
D39*
%TO.C,C6*%
X130124200Y-117820400D03*
X130124200Y-119370400D03*
%TD*%
D13*
%TO.C,R1*%
X126339600Y-101002600D03*
X126339600Y-99352600D03*
%TD*%
M02*
