%TF.GenerationSoftware,KiCad,Pcbnew,7.0.1*%
%TF.CreationDate,2023-11-07T15:52:04+07:00*%
%TF.ProjectId,Hot-plate-controller,486f742d-706c-4617-9465-2d636f6e7472,rev?*%
%TF.SameCoordinates,Original*%
%TF.FileFunction,Soldermask,Bot*%
%TF.FilePolarity,Negative*%
%FSLAX46Y46*%
G04 Gerber Fmt 4.6, Leading zero omitted, Abs format (unit mm)*
G04 Created by KiCad (PCBNEW 7.0.1) date 2023-11-07 15:52:04*
%MOMM*%
%LPD*%
G01*
G04 APERTURE LIST*
G04 Aperture macros list*
%AMRoundRect*
0 Rectangle with rounded corners*
0 $1 Rounding radius*
0 $2 $3 $4 $5 $6 $7 $8 $9 X,Y pos of 4 corners*
0 Add a 4 corners polygon primitive as box body*
4,1,4,$2,$3,$4,$5,$6,$7,$8,$9,$2,$3,0*
0 Add four circle primitives for the rounded corners*
1,1,$1+$1,$2,$3*
1,1,$1+$1,$4,$5*
1,1,$1+$1,$6,$7*
1,1,$1+$1,$8,$9*
0 Add four rect primitives between the rounded corners*
20,1,$1+$1,$2,$3,$4,$5,0*
20,1,$1+$1,$4,$5,$6,$7,0*
20,1,$1+$1,$6,$7,$8,$9,0*
20,1,$1+$1,$8,$9,$2,$3,0*%
%AMFreePoly0*
4,1,19,0.500000,-0.750000,0.000000,-0.750000,0.000000,-0.744911,-0.071157,-0.744911,-0.207708,-0.704816,-0.327430,-0.627875,-0.420627,-0.520320,-0.479746,-0.390866,-0.500000,-0.250000,-0.500000,0.250000,-0.479746,0.390866,-0.420627,0.520320,-0.327430,0.627875,-0.207708,0.704816,-0.071157,0.744911,0.000000,0.744911,0.000000,0.750000,0.500000,0.750000,0.500000,-0.750000,0.500000,-0.750000,
$1*%
%AMFreePoly1*
4,1,19,0.000000,0.744911,0.071157,0.744911,0.207708,0.704816,0.327430,0.627875,0.420627,0.520320,0.479746,0.390866,0.500000,0.250000,0.500000,-0.250000,0.479746,-0.390866,0.420627,-0.520320,0.327430,-0.627875,0.207708,-0.704816,0.071157,-0.744911,0.000000,-0.744911,0.000000,-0.750000,-0.500000,-0.750000,-0.500000,0.750000,0.000000,0.750000,0.000000,0.744911,0.000000,0.744911,
$1*%
G04 Aperture macros list end*
%ADD10C,3.000000*%
%ADD11R,1.700000X1.700000*%
%ADD12O,1.700000X1.700000*%
%ADD13C,3.200000*%
%ADD14RoundRect,0.250000X-0.750000X0.600000X-0.750000X-0.600000X0.750000X-0.600000X0.750000X0.600000X0*%
%ADD15O,2.000000X1.700000*%
%ADD16R,1.905000X2.000000*%
%ADD17O,1.905000X2.000000*%
%ADD18R,3.000000X3.000000*%
%ADD19RoundRect,0.250000X0.600000X0.725000X-0.600000X0.725000X-0.600000X-0.725000X0.600000X-0.725000X0*%
%ADD20O,1.700000X1.950000*%
%ADD21R,1.600000X1.600000*%
%ADD22C,1.600000*%
%ADD23R,2.000000X2.000000*%
%ADD24C,2.000000*%
%ADD25C,2.400000*%
%ADD26O,2.400000X2.400000*%
%ADD27FreePoly0,180.000000*%
%ADD28FreePoly1,180.000000*%
G04 APERTURE END LIST*
D10*
%TO.C,J4*%
X128625600Y-51181000D03*
X128625600Y-46101000D03*
%TD*%
%TO.C,J3*%
X85750400Y-45872400D03*
X85750400Y-40792400D03*
%TD*%
%TO.C,J2*%
X74828400Y-45872400D03*
X74828400Y-40792400D03*
%TD*%
%TO.C,J1*%
X117348000Y-51181000D03*
X117348000Y-46101000D03*
%TD*%
D11*
%TO.C,J6*%
X61417200Y-140436600D03*
D12*
X63957200Y-140436600D03*
X66497200Y-140436600D03*
X69037200Y-140436600D03*
X71577200Y-140436600D03*
X74117200Y-140436600D03*
X76657200Y-140436600D03*
X79197200Y-140436600D03*
X81737200Y-140436600D03*
X84277200Y-140436600D03*
X86817200Y-140436600D03*
X89357200Y-140436600D03*
X91897200Y-140436600D03*
X94437200Y-140436600D03*
X96977200Y-140436600D03*
X99517200Y-140436600D03*
X102057200Y-140436600D03*
X104597200Y-140436600D03*
X107137200Y-140436600D03*
X109677200Y-140436600D03*
%TD*%
D13*
%TO.C,H4*%
X140462000Y-149174200D03*
%TD*%
D14*
%TO.C,J16*%
X140961600Y-106705400D03*
D15*
X140961600Y-109205400D03*
%TD*%
D16*
%TO.C,Q1*%
X124917200Y-75041800D03*
D17*
X127457200Y-75041800D03*
X129997200Y-75041800D03*
%TD*%
D13*
%TO.C,H3*%
X63347600Y-149174200D03*
%TD*%
D18*
%TO.C,J5*%
X139928600Y-116055400D03*
D10*
X139928600Y-121135400D03*
%TD*%
D19*
%TO.C,J15*%
X134064400Y-149699200D03*
D20*
X131564400Y-149699200D03*
X129064400Y-149699200D03*
X126564400Y-149699200D03*
%TD*%
D14*
%TO.C,J12*%
X140961600Y-137230800D03*
D15*
X140961600Y-139730800D03*
%TD*%
D19*
%TO.C,J9*%
X120460036Y-149699200D03*
D20*
X117960036Y-149699200D03*
X115460036Y-149699200D03*
X112960036Y-149699200D03*
X110460036Y-149699200D03*
%TD*%
D21*
%TO.C,C3*%
X65575795Y-114427000D03*
D22*
X63075795Y-114427000D03*
%TD*%
D18*
%TO.C,PS2*%
X78218800Y-55560000D03*
D10*
X67468800Y-55560000D03*
X67468800Y-94060000D03*
X75468800Y-94060000D03*
%TD*%
D13*
%TO.C,H2*%
X63347600Y-41097200D03*
%TD*%
D14*
%TO.C,J13*%
X141004000Y-127838200D03*
D15*
X141004000Y-130338200D03*
%TD*%
D23*
%TO.C,BZ1*%
X91694000Y-105089800D03*
D24*
X91694000Y-112689800D03*
%TD*%
D25*
%TO.C,R6*%
X94005400Y-70358000D03*
D26*
X94005400Y-50038000D03*
%TD*%
D25*
%TO.C,R5*%
X100660200Y-70358000D03*
D26*
X100660200Y-50038000D03*
%TD*%
D25*
%TO.C,R4*%
X117449600Y-81722000D03*
D26*
X137769600Y-81722000D03*
%TD*%
D19*
%TO.C,J14*%
X90751312Y-149699200D03*
D20*
X88251312Y-149699200D03*
X85751312Y-149699200D03*
X83251312Y-149699200D03*
%TD*%
D11*
%TO.C,J8*%
X111962800Y-128861600D03*
D12*
X111962800Y-131401600D03*
X111962800Y-133941600D03*
X111962800Y-136481600D03*
%TD*%
D19*
%TO.C,J10*%
X104355674Y-149699200D03*
D20*
X101855674Y-149699200D03*
X99355674Y-149699200D03*
X96855674Y-149699200D03*
%TD*%
D19*
%TO.C,J11*%
X77146950Y-149699200D03*
D20*
X74646950Y-149699200D03*
X72146950Y-149699200D03*
X69646950Y-149699200D03*
%TD*%
D13*
%TO.C,H1*%
X140462000Y-41097200D03*
%TD*%
D11*
%TO.C,J7*%
X61417200Y-125196600D03*
D12*
X63957200Y-125196600D03*
X66497200Y-125196600D03*
X69037200Y-125196600D03*
X71577200Y-125196600D03*
X74117200Y-125196600D03*
X76657200Y-125196600D03*
X79197200Y-125196600D03*
X81737200Y-125196600D03*
X84277200Y-125196600D03*
X86817200Y-125196600D03*
X89357200Y-125196600D03*
X91897200Y-125196600D03*
X94437200Y-125196600D03*
X96977200Y-125196600D03*
X99517200Y-125196600D03*
X102057200Y-125196600D03*
X104597200Y-125196600D03*
X107137200Y-125196600D03*
X109677200Y-125196600D03*
%TD*%
D21*
%TO.C,C4*%
X65575795Y-105054400D03*
D22*
X63075795Y-105054400D03*
%TD*%
D27*
%TO.C,JP1*%
X73304400Y-130919800D03*
D28*
X72004400Y-130919800D03*
%TD*%
D27*
%TO.C,JP3*%
X73304400Y-136025200D03*
D28*
X72004400Y-136025200D03*
%TD*%
D27*
%TO.C,JP2*%
X73304400Y-133502400D03*
D28*
X72004400Y-133502400D03*
%TD*%
M02*
