%TF.GenerationSoftware,KiCad,Pcbnew,7.0.1*%
%TF.CreationDate,2023-11-07T15:52:04+07:00*%
%TF.ProjectId,Hot-plate-controller,486f742d-706c-4617-9465-2d636f6e7472,rev?*%
%TF.SameCoordinates,Original*%
%TF.FileFunction,Legend,Bot*%
%TF.FilePolarity,Positive*%
%FSLAX46Y46*%
G04 Gerber Fmt 4.6, Leading zero omitted, Abs format (unit mm)*
G04 Created by KiCad (PCBNEW 7.0.1) date 2023-11-07 15:52:04*
%MOMM*%
%LPD*%
G01*
G04 APERTURE LIST*
%ADD10C,0.150000*%
%ADD11C,0.120000*%
G04 APERTURE END LIST*
D10*
%TO.C,JP1*%
X70373933Y-130368219D02*
X70373933Y-131082504D01*
X70373933Y-131082504D02*
X70421552Y-131225361D01*
X70421552Y-131225361D02*
X70516790Y-131320600D01*
X70516790Y-131320600D02*
X70659647Y-131368219D01*
X70659647Y-131368219D02*
X70754885Y-131368219D01*
X69897742Y-131368219D02*
X69897742Y-130368219D01*
X69897742Y-130368219D02*
X69516790Y-130368219D01*
X69516790Y-130368219D02*
X69421552Y-130415838D01*
X69421552Y-130415838D02*
X69373933Y-130463457D01*
X69373933Y-130463457D02*
X69326314Y-130558695D01*
X69326314Y-130558695D02*
X69326314Y-130701552D01*
X69326314Y-130701552D02*
X69373933Y-130796790D01*
X69373933Y-130796790D02*
X69421552Y-130844409D01*
X69421552Y-130844409D02*
X69516790Y-130892028D01*
X69516790Y-130892028D02*
X69897742Y-130892028D01*
X68373933Y-131368219D02*
X68945361Y-131368219D01*
X68659647Y-131368219D02*
X68659647Y-130368219D01*
X68659647Y-130368219D02*
X68754885Y-130511076D01*
X68754885Y-130511076D02*
X68850123Y-130606314D01*
X68850123Y-130606314D02*
X68945361Y-130653933D01*
%TO.C,JP3*%
X70373933Y-135473619D02*
X70373933Y-136187904D01*
X70373933Y-136187904D02*
X70421552Y-136330761D01*
X70421552Y-136330761D02*
X70516790Y-136426000D01*
X70516790Y-136426000D02*
X70659647Y-136473619D01*
X70659647Y-136473619D02*
X70754885Y-136473619D01*
X69897742Y-136473619D02*
X69897742Y-135473619D01*
X69897742Y-135473619D02*
X69516790Y-135473619D01*
X69516790Y-135473619D02*
X69421552Y-135521238D01*
X69421552Y-135521238D02*
X69373933Y-135568857D01*
X69373933Y-135568857D02*
X69326314Y-135664095D01*
X69326314Y-135664095D02*
X69326314Y-135806952D01*
X69326314Y-135806952D02*
X69373933Y-135902190D01*
X69373933Y-135902190D02*
X69421552Y-135949809D01*
X69421552Y-135949809D02*
X69516790Y-135997428D01*
X69516790Y-135997428D02*
X69897742Y-135997428D01*
X68992980Y-135473619D02*
X68373933Y-135473619D01*
X68373933Y-135473619D02*
X68707266Y-135854571D01*
X68707266Y-135854571D02*
X68564409Y-135854571D01*
X68564409Y-135854571D02*
X68469171Y-135902190D01*
X68469171Y-135902190D02*
X68421552Y-135949809D01*
X68421552Y-135949809D02*
X68373933Y-136045047D01*
X68373933Y-136045047D02*
X68373933Y-136283142D01*
X68373933Y-136283142D02*
X68421552Y-136378380D01*
X68421552Y-136378380D02*
X68469171Y-136426000D01*
X68469171Y-136426000D02*
X68564409Y-136473619D01*
X68564409Y-136473619D02*
X68850123Y-136473619D01*
X68850123Y-136473619D02*
X68945361Y-136426000D01*
X68945361Y-136426000D02*
X68992980Y-136378380D01*
%TO.C,JP2*%
X70373933Y-132950819D02*
X70373933Y-133665104D01*
X70373933Y-133665104D02*
X70421552Y-133807961D01*
X70421552Y-133807961D02*
X70516790Y-133903200D01*
X70516790Y-133903200D02*
X70659647Y-133950819D01*
X70659647Y-133950819D02*
X70754885Y-133950819D01*
X69897742Y-133950819D02*
X69897742Y-132950819D01*
X69897742Y-132950819D02*
X69516790Y-132950819D01*
X69516790Y-132950819D02*
X69421552Y-132998438D01*
X69421552Y-132998438D02*
X69373933Y-133046057D01*
X69373933Y-133046057D02*
X69326314Y-133141295D01*
X69326314Y-133141295D02*
X69326314Y-133284152D01*
X69326314Y-133284152D02*
X69373933Y-133379390D01*
X69373933Y-133379390D02*
X69421552Y-133427009D01*
X69421552Y-133427009D02*
X69516790Y-133474628D01*
X69516790Y-133474628D02*
X69897742Y-133474628D01*
X68945361Y-133046057D02*
X68897742Y-132998438D01*
X68897742Y-132998438D02*
X68802504Y-132950819D01*
X68802504Y-132950819D02*
X68564409Y-132950819D01*
X68564409Y-132950819D02*
X68469171Y-132998438D01*
X68469171Y-132998438D02*
X68421552Y-133046057D01*
X68421552Y-133046057D02*
X68373933Y-133141295D01*
X68373933Y-133141295D02*
X68373933Y-133236533D01*
X68373933Y-133236533D02*
X68421552Y-133379390D01*
X68421552Y-133379390D02*
X68992980Y-133950819D01*
X68992980Y-133950819D02*
X68373933Y-133950819D01*
D11*
%TO.C,JP1*%
X74054400Y-131219800D02*
X74054400Y-130619800D01*
X73354400Y-129919800D02*
X71954400Y-129919800D01*
X71954400Y-131919800D02*
X73354400Y-131919800D01*
X71254400Y-130619800D02*
X71254400Y-131219800D01*
X73354400Y-131919800D02*
G75*
G03*
X74054400Y-131219800I1J699999D01*
G01*
X74054400Y-130619800D02*
G75*
G03*
X73354400Y-129919800I-699999J1D01*
G01*
X71254400Y-131219800D02*
G75*
G03*
X71954400Y-131919800I700000J0D01*
G01*
X71954400Y-129919800D02*
G75*
G03*
X71254400Y-130619800I0J-700000D01*
G01*
%TO.C,JP3*%
X74054400Y-136325200D02*
X74054400Y-135725200D01*
X73354400Y-135025200D02*
X71954400Y-135025200D01*
X71954400Y-137025200D02*
X73354400Y-137025200D01*
X71254400Y-135725200D02*
X71254400Y-136325200D01*
X73354400Y-137025200D02*
G75*
G03*
X74054400Y-136325200I1J699999D01*
G01*
X74054400Y-135725200D02*
G75*
G03*
X73354400Y-135025200I-699999J1D01*
G01*
X71254400Y-136325200D02*
G75*
G03*
X71954400Y-137025200I700000J0D01*
G01*
X71954400Y-135025200D02*
G75*
G03*
X71254400Y-135725200I0J-700000D01*
G01*
%TO.C,JP2*%
X74054400Y-133802400D02*
X74054400Y-133202400D01*
X73354400Y-132502400D02*
X71954400Y-132502400D01*
X71954400Y-134502400D02*
X73354400Y-134502400D01*
X71254400Y-133202400D02*
X71254400Y-133802400D01*
X73354400Y-134502400D02*
G75*
G03*
X74054400Y-133802400I1J699999D01*
G01*
X74054400Y-133202400D02*
G75*
G03*
X73354400Y-132502400I-699999J1D01*
G01*
X71254400Y-133802400D02*
G75*
G03*
X71954400Y-134502400I700000J0D01*
G01*
X71954400Y-132502400D02*
G75*
G03*
X71254400Y-133202400I0J-700000D01*
G01*
%TD*%
M02*
