M48
; DRILL file {KiCad 7.0.1} date Tue Nov  7 15:52:02 2023
; FORMAT={-:-/ absolute / inch / decimal}
; #@! TF.CreationDate,2023-11-07T15:52:02+07:00
; #@! TF.GenerationSoftware,Kicad,Pcbnew,7.0.1
; #@! TF.FileFunction,Plated,1,2,PTH
FMAT,2
INCH
; #@! TA.AperFunction,Plated,PTH,ViaDrill
T1C0.0157
; #@! TA.AperFunction,Plated,PTH,ComponentDrill
T2C0.0315
; #@! TA.AperFunction,Plated,PTH,ComponentDrill
T3C0.0374
; #@! TA.AperFunction,Plated,PTH,ComponentDrill
T4C0.0394
; #@! TA.AperFunction,Plated,PTH,ComponentDrill
T5C0.0433
; #@! TA.AperFunction,Plated,PTH,ComponentDrill
T6C0.0472
; #@! TA.AperFunction,Plated,PTH,ComponentDrill
T7C0.0591
; #@! TA.AperFunction,Plated,PTH,ComponentDrill
T8C0.0598
; #@! TA.AperFunction,Plated,PTH,ComponentDrill
T9C0.0610
%
G90
G05
T1
X2.419Y-4.137
X2.421Y-4.504
X2.439Y-5.221
X2.44Y-4.766
X2.482Y-4.074
X2.483Y-4.199
X2.485Y-4.443
X2.488Y-4.57
X2.502Y-5.663
X2.5903Y-3.5697
X2.5903Y-3.603
X2.5913Y-3.81
X2.5913Y-3.8433
X2.5913Y-3.8767
X2.6237Y-3.5697
X2.6237Y-3.603
X2.6247Y-3.81
X2.6247Y-3.8433
X2.6247Y-3.8767
X2.657Y-3.5697
X2.657Y-3.603
X2.658Y-3.81
X2.658Y-3.8433
X2.658Y-3.8767
X2.667Y-5.396
X2.672Y-5.032
X2.6903Y-3.5697
X2.6903Y-3.603
X2.6913Y-3.81
X2.6913Y-3.8433
X2.6913Y-3.8767
X2.7117Y-4.2513
X2.7117Y-4.2847
X2.7117Y-4.318
X2.7117Y-4.3513
X2.7117Y-4.3847
X2.712Y-5.204
X2.719Y-5.367
X2.7237Y-3.5697
X2.7237Y-3.603
X2.7247Y-3.81
X2.7247Y-3.8433
X2.7247Y-3.8767
X2.726Y-3.962
X2.742Y-5.828
X2.745Y-4.2513
X2.745Y-4.2847
X2.745Y-4.318
X2.745Y-4.3513
X2.745Y-4.3847
X2.7487Y-4.086
X2.7487Y-4.1193
X2.778Y-5.399
X2.782Y-4.086
X2.782Y-4.1193
X2.805Y-4.625
X2.8153Y-4.086
X2.8153Y-4.1193
X2.8487Y-4.086
X2.8487Y-4.1193
X2.882Y-4.086
X2.882Y-4.1193
X2.9243Y-3.81
X2.9243Y-3.8433
X2.9243Y-3.8767
X2.9577Y-3.81
X2.9577Y-3.8433
X2.9577Y-3.8767
X2.968Y-4.9975
X2.976Y-4.417
X2.991Y-3.81
X2.991Y-3.8433
X2.991Y-3.8767
X3.0243Y-3.81
X3.0243Y-3.8433
X3.0243Y-3.8767
X3.026Y-4.832
X3.051Y-4.47
X3.0577Y-3.81
X3.0577Y-3.8433
X3.0577Y-3.8767
X3.064Y-5.205
X3.064Y-5.255
X3.064Y-5.305
X3.082Y-4.71
X3.083Y-5.051
X3.136Y-5.687
X3.17Y-5.144
X3.226Y-3.738
X3.263Y-4.259
X3.265Y-4.598
X3.28Y-5.828
X3.284Y-4.394
X3.293Y-4.19
X3.361Y-3.984
X3.363Y-5.338
X3.365Y-4.71
X3.431Y-4.217
X3.451Y-5.148
X3.516Y-5.348
X3.529Y-4.762
X3.588Y-3.571
X3.602Y-4.345
X3.636Y-5.197
X3.646Y-5.677
X3.744Y-3.998
X3.791Y-5.341
X3.814Y-5.828
X3.878Y-3.89
X3.968Y-4.757
X4.02Y-4.18
X4.042Y-3.566
X4.042Y-4.511
X4.054Y-4.8026
X4.054Y-4.842
X4.064Y-5.14
X4.23Y-5.669
X4.24Y-4.332
X4.251Y-5.276
X4.272Y-4.521
X4.281Y-4.753
X4.302Y-3.567
X4.348Y-5.827
X4.351Y-3.795
X4.489Y-4.051
X4.503Y-4.352
X4.552Y-5.461
X4.558Y-4.81
X4.606Y-4.531
X4.741Y-5.024
X4.804Y-4.775
X4.85Y-5.18
X4.869Y-5.88
X4.922Y-4.502
X4.962Y-4.683
X5.013Y-3.732
X5.035Y-4.777
X5.081Y-5.134
X5.084Y-5.501
X5.13Y-3.894
X5.157Y-5.502
X5.177Y-4.6071
X5.177Y-4.7311
X5.178Y-4.48
X5.204Y-5.218
X5.255Y-4.999
X5.266Y-5.796
X5.297Y-4.79
X5.312Y-4.56
X5.399Y-4.811
X5.4Y-4.529
X5.443Y-4.674
X5.473Y-5.067
X5.481Y-5.458
X5.549Y-5.234
X5.564Y-3.746
X5.567Y-3.986
X5.58Y-4.678
T2
X2.4833Y-4.136
X2.4833Y-4.505
X2.5817Y-4.136
X2.5817Y-4.505
T3
X2.742Y-5.8937
X2.8404Y-5.8937
X2.9389Y-5.8937
X3.0373Y-5.8937
X3.2776Y-5.8937
X3.376Y-5.8937
X3.4745Y-5.8937
X3.5729Y-5.8937
X3.8132Y-5.8937
X3.9116Y-5.8937
X4.0101Y-5.8937
X4.1085Y-5.8937
X4.3488Y-5.8937
X4.4472Y-5.8937
X4.5457Y-5.8937
X4.6441Y-5.8937
X4.7425Y-5.8937
X4.9829Y-5.8937
X5.0813Y-5.8937
X5.1797Y-5.8937
X5.2781Y-5.8937
T4
X2.418Y-4.929
X2.418Y-5.529
X2.518Y-4.929
X2.518Y-5.529
X2.618Y-4.929
X2.618Y-5.529
X2.718Y-4.929
X2.718Y-5.529
X2.818Y-4.929
X2.818Y-5.529
X2.918Y-4.929
X2.918Y-5.529
X3.018Y-4.929
X3.018Y-5.529
X3.118Y-4.929
X3.118Y-5.529
X3.218Y-4.929
X3.218Y-5.529
X3.318Y-4.929
X3.318Y-5.529
X3.418Y-4.929
X3.418Y-5.529
X3.518Y-4.929
X3.518Y-5.529
X3.61Y-4.1374
X3.61Y-4.4366
X3.618Y-4.929
X3.618Y-5.529
X3.718Y-4.929
X3.718Y-5.529
X3.818Y-4.929
X3.818Y-5.529
X3.918Y-4.929
X3.918Y-5.529
X4.018Y-4.929
X4.018Y-5.529
X4.118Y-4.929
X4.118Y-5.529
X4.218Y-4.929
X4.218Y-5.529
X4.318Y-4.929
X4.318Y-5.529
X4.408Y-5.0733
X4.408Y-5.1733
X4.408Y-5.2733
X4.408Y-5.3733
X5.5497Y-4.201
X5.5497Y-4.2994
X5.5497Y-5.4028
X5.5497Y-5.5012
X5.5513Y-5.033
X5.5513Y-5.1314
T5
X4.918Y-2.9544
X5.018Y-2.9544
X5.118Y-2.9544
T6
X3.701Y-1.97
X3.701Y-2.77
X3.963Y-1.97
X3.963Y-2.77
X4.624Y-3.2174
X5.424Y-3.2174
T7
X2.6563Y-2.1874
X2.6563Y-3.7031
X2.9712Y-3.7031
X3.0795Y-2.1874
T8
X5.509Y-4.5691
X5.509Y-4.7691
T9
X2.946Y-1.606
X2.946Y-1.806
X3.376Y-1.606
X3.376Y-1.806
X4.62Y-1.815
X4.62Y-2.015
X5.064Y-1.815
X5.064Y-2.015
T0
M30
